<svg xmlns="http://www.w3.org/2000/svg" viewBox="0 0 64 64">
<path d="M36 10c-8 0-10 7-12 13-2 5-11 11-11 20 0 8 7 13 17 13 11 0 19-8 19-18 0-8-4-12-5-18-1-5-3-10-8-10z" fill="#6DBB3F" stroke="#4E3424" stroke-width="2.5" stroke-linejoin="round" stroke-linecap="round"/>
<path d="M22 42c0 5 3 8 8 8" fill="none" stroke="#B7E27C" stroke-width="3" stroke-linecap="round"/>
<path d="M28 27c2-4 3-8 6-11" fill="none" stroke="#9AD35E" stroke-width="2.4" stroke-linecap="round"/>
<path d="M36 10c0-3 1-5 3-6" fill="none" stroke="#4E3424" stroke-width="3" stroke-linejoin="round" stroke-linecap="round"/>
</svg>
