<svg xmlns="http://www.w3.org/2000/svg" viewBox="0 0 64 64">
<defs><radialGradient id="k1" cx="0.36" cy="0.3" r="0.8"><stop offset="0" stop-color="#9BE070"/><stop offset=".5" stop-color="#5DB33D"/><stop offset="1" stop-color="#357A25"/></radialGradient><radialGradient id="k" cx="0.4" cy="0.35" r="0.8"><stop offset="0" stop-color="#FFF08A"/><stop offset=".5" stop-color="#FFCD2E"/><stop offset="1" stop-color="#D8960E"/></radialGradient><radialGradient id="k2" cx="0.36" cy="0.3" r="0.8"><stop offset="0" stop-color="#9BE070"/><stop offset=".5" stop-color="#5DB33D"/><stop offset="1" stop-color="#357A25"/></radialGradient></defs>
<path d="M18 53c-8-4-12-13-8-21 7 3 12 10 13 18z" fill="url(#k1)" stroke="#2B5A1C" stroke-width="2.6" stroke-linejoin="round" stroke-linecap="round"/>
<g transform="rotate(40 34 30)"><ellipse cx="34" cy="30" rx="10" ry="22" fill="url(#k)" stroke="#7A5A08" stroke-width="3" stroke-linejoin="round" stroke-linecap="round"/><circle cx="34" cy="14" r="2.2" fill="#FFF09A" opacity=".85"/><circle cx="29" cy="20" r="2.2" fill="#FFF09A" opacity=".85"/><circle cx="34" cy="20" r="2.2" fill="#FFF09A" opacity=".85"/><circle cx="39" cy="20" r="2.2" fill="#FFF09A" opacity=".85"/><circle cx="29" cy="26" r="2.2" fill="#FFF09A" opacity=".85"/><circle cx="34" cy="26" r="2.2" fill="#FFF09A" opacity=".85"/><circle cx="39" cy="26" r="2.2" fill="#FFF09A" opacity=".85"/><circle cx="29" cy="32" r="2.2" fill="#FFF09A" opacity=".85"/><circle cx="34" cy="32" r="2.2" fill="#FFF09A" opacity=".85"/><circle cx="39" cy="32" r="2.2" fill="#FFF09A" opacity=".85"/><circle cx="29" cy="38" r="2.2" fill="#FFF09A" opacity=".85"/><circle cx="34" cy="38" r="2.2" fill="#FFF09A" opacity=".85"/><circle cx="39" cy="38" r="2.2" fill="#FFF09A" opacity=".85"/><circle cx="29" cy="44" r="2.2" fill="#FFF09A" opacity=".85"/><circle cx="34" cy="44" r="2.2" fill="#FFF09A" opacity=".85"/><circle cx="39" cy="44" r="2.2" fill="#FFF09A" opacity=".85"/></g>
<path d="M24 56c3-9 11-15 20-16-2 9-10 15-20 16z" fill="url(#k2)" stroke="#2B5A1C" stroke-width="2.6" stroke-linejoin="round" stroke-linecap="round"/>
<path d="M50 9l3-4M53 12l5-2M48 7l1-5" fill="none" stroke="#C9A040" stroke-width="2" stroke-linecap="round" stroke-linejoin="round" opacity="1"/>
</svg>
