<svg xmlns="http://www.w3.org/2000/svg" viewBox="0 0 64 64">
<defs><radialGradient id="h1" cx="0.5" cy="0.4" r="0.8"><stop offset="0" stop-color="#FF7F8E"/><stop offset=".5" stop-color="#E0304A"/><stop offset="1" stop-color="#9E1430"/></radialGradient><radialGradient id="h2" cx="0.5" cy="0.4" r="0.8"><stop offset="0" stop-color="#FF7F8E"/><stop offset=".5" stop-color="#E0304A"/><stop offset="1" stop-color="#9E1430"/></radialGradient><radialGradient id="h3" cx="0.5" cy="0.4" r="0.8"><stop offset="0" stop-color="#FF7F8E"/><stop offset=".5" stop-color="#E0304A"/><stop offset="1" stop-color="#9E1430"/></radialGradient><radialGradient id="h4" cx="0.5" cy="0.4" r="0.8"><stop offset="0" stop-color="#FF7F8E"/><stop offset=".5" stop-color="#E0304A"/><stop offset="1" stop-color="#9E1430"/></radialGradient><radialGradient id="h5" cx="0.5" cy="0.4" r="0.8"><stop offset="0" stop-color="#FF7F8E"/><stop offset=".5" stop-color="#E0304A"/><stop offset="1" stop-color="#9E1430"/></radialGradient></defs>
<g transform="translate(32 34) scale(0.86) translate(-32 -34)"><path d="M14 57c6-8 11-17 15-30M21 46c6-2 11-6 15-11M25 38c-5-2-9-6-11-11M28 29c4-6 9-10 15-12" fill="none" stroke="#8A6A2A" stroke-width="6.5" stroke-linecap="round" stroke-linejoin="round" opacity="1"/><path d="M14 57c6-8 11-17 15-30M21 46c6-2 11-6 15-11M25 38c-5-2-9-6-11-11M28 29c4-6 9-10 15-12" fill="none" stroke="#F2D48A" stroke-width="3.4" stroke-linecap="round" stroke-linejoin="round" opacity="1"/><g transform="translate(35 36) rotate(-25) scale(1.25)"><path d="M0 0C3-8 13-11 21-7 19 2 9 7 0 0z" fill="url(#h1)" stroke="#6A0E1E" stroke-width="2.3" stroke-linejoin="round" stroke-linecap="round"/><path d="M3-1C9-3 13-5 18-6" fill="none" stroke="#8E1228" stroke-width="1.4" stroke-linecap="round" stroke-linejoin="round" opacity="0.7"/></g><g transform="translate(17 29) rotate(-150) scale(1.1)"><path d="M0 0C3-8 13-11 21-7 19 2 9 7 0 0z" fill="url(#h2)" stroke="#6A0E1E" stroke-width="2.3" stroke-linejoin="round" stroke-linecap="round"/><path d="M3-1C9-3 13-5 18-6" fill="none" stroke="#8E1228" stroke-width="1.4" stroke-linecap="round" stroke-linejoin="round" opacity="0.7"/></g><g transform="translate(42 18) rotate(-30) scale(1.25)"><path d="M0 0C3-8 13-11 21-7 19 2 9 7 0 0z" fill="url(#h3)" stroke="#6A0E1E" stroke-width="2.3" stroke-linejoin="round" stroke-linecap="round"/><path d="M3-1C9-3 13-5 18-6" fill="none" stroke="#8E1228" stroke-width="1.4" stroke-linecap="round" stroke-linejoin="round" opacity="0.7"/></g><g transform="translate(29 28) rotate(-100) scale(1.3)"><path d="M0 0C3-8 13-11 21-7 19 2 9 7 0 0z" fill="url(#h4)" stroke="#6A0E1E" stroke-width="2.3" stroke-linejoin="round" stroke-linecap="round"/><path d="M3-1C9-3 13-5 18-6" fill="none" stroke="#8E1228" stroke-width="1.4" stroke-linecap="round" stroke-linejoin="round" opacity="0.7"/></g><g transform="translate(22 47) rotate(-175) scale(0.9)"><path d="M0 0C3-8 13-11 21-7 19 2 9 7 0 0z" fill="url(#h5)" stroke="#6A0E1E" stroke-width="2.3" stroke-linejoin="round" stroke-linecap="round"/><path d="M3-1C9-3 13-5 18-6" fill="none" stroke="#8E1228" stroke-width="1.4" stroke-linecap="round" stroke-linejoin="round" opacity="0.7"/></g></g>
</svg>
